<?xml version="1.0" standalone="no"?><!DOCTYPE svg PUBLIC "-//W3C//DTD SVG 1.1//EN" "http://www.w3.org/Graphics/SVG/1.1/DTD/svg11.dtd"><svg t="1781147337732" class="icon" viewBox="0 0 1024 1024" version="1.1" xmlns="http://www.w3.org/2000/svg" p-id="3377" xmlns:xlink="http://www.w3.org/1999/xlink" width="200" height="200"><path d="M211.2 211.2h601.6v601.6H211.2V211.2zM192 128a64 64 0 0 0-64 64v640a64 64 0 0 0 64 64h640a64 64 0 0 0 64-64V192a64 64 0 0 0-64-64H192z" fill="#334155" p-id="3378"></path><path d="M354.56 354.56a41.6 41.6 0 0 1 58.88 0l256 256a41.6 41.6 0 0 1-58.88 58.88l-256-256a41.6 41.6 0 0 1 0-58.88z" fill="#334155" p-id="3379"></path><path d="M669.44 354.56a41.6 41.6 0 0 1 0 58.88l-256 256a41.6 41.6 0 1 1-58.88-58.88l256-256a41.6 41.6 0 0 1 58.88 0z" fill="#334155" p-id="3380"></path></svg>